<svg width="152" height="55" viewBox="0 0 152 55" fill="none" xmlns="http://www.w3.org/2000/svg">
<path d="M1.46334 54V15.1496H7.43255V54H1.46334ZM4.49853 8.67448C3.33504 8.67448 2.33175 8.27822 1.48864 7.4857C0.662391 6.69318 0.249268 5.74047 0.249268 4.62756C0.249268 3.51466 0.662391 2.56195 1.48864 1.76942C2.33175 0.976904 3.33504 0.580643 4.49853 0.580643C5.66202 0.580643 6.65689 0.976904 7.48314 1.76942C8.32625 2.56195 8.7478 3.51466 8.7478 4.62756C8.7478 5.74047 8.32625 6.69318 7.48314 7.4857C6.65689 8.27822 5.66202 8.67448 4.49853 8.67448Z" fill="black"/>
<path d="M45.8846 23.8504L40.5225 25.368C40.1852 24.4743 39.6878 23.6059 39.0302 22.7628C38.3894 21.9029 37.5126 21.1946 36.3997 20.6382C35.2867 20.0817 33.8619 19.8035 32.1251 19.8035C29.7475 19.8035 27.7662 20.3515 26.1812 21.4476C24.613 22.5268 23.8289 23.901 23.8289 25.5704C23.8289 27.0543 24.3685 28.2262 25.4477 29.0861C26.5269 29.9461 28.2131 30.6628 30.5063 31.2361L36.2732 32.6525C39.7468 33.4956 42.3351 34.7856 44.0382 36.5224C45.7413 38.2423 46.5928 40.4597 46.5928 43.1745C46.5928 45.4003 45.9521 47.39 44.6705 49.1437C43.4059 50.8974 41.6354 52.2801 39.359 53.2918C37.0826 54.3035 34.4352 54.8094 31.4169 54.8094C27.4543 54.8094 24.1746 53.9494 21.5778 52.2295C18.981 50.5095 17.337 47.9971 16.6456 44.6921L22.3113 43.2757C22.8509 45.3666 23.8711 46.9347 25.3718 47.9802C26.8894 49.0257 28.8707 49.5484 31.3157 49.5484C34.098 49.5484 36.3069 48.9582 37.9425 47.7779C39.595 46.5806 40.4213 45.1474 40.4213 43.478C40.4213 42.129 39.9491 40.9993 39.0049 40.0887C38.0606 39.1613 36.6104 38.4699 34.6544 38.0147L28.1793 36.4971C24.6214 35.654 22.0078 34.3471 20.3384 32.5766C18.6859 30.7892 17.8597 28.555 17.8597 25.8739C17.8597 23.6818 18.4752 21.7427 19.7061 20.0564C20.9539 18.3702 22.6486 17.0466 24.79 16.0854C26.9484 15.1243 29.3934 14.6437 32.1251 14.6437C35.9697 14.6437 38.988 15.4868 41.1801 17.173C43.389 18.8592 44.9572 21.085 45.8846 23.8504Z" fill="black"/>
<path d="M67.0108 54.9106C64.5489 54.9106 62.3147 54.4468 60.3081 53.5194C58.3015 52.5751 56.708 51.2177 55.5277 49.4472C54.3473 47.6598 53.7571 45.5015 53.7571 42.9721C53.7571 40.7463 54.1956 38.9421 55.0724 37.5594C55.9492 36.1598 57.1212 35.0638 58.5882 34.2713C60.0552 33.4787 61.6739 32.8886 63.4445 32.5007C65.2319 32.096 67.0277 31.7757 68.8319 31.5396C71.1926 31.2361 73.1065 31.0084 74.5735 30.8567C76.0574 30.688 77.1365 30.4098 77.811 30.022C78.5024 29.6342 78.8481 28.9597 78.8481 27.9985V27.7962C78.8481 25.3006 78.1651 23.3614 76.7993 21.9787C75.4503 20.596 73.4016 19.9047 70.653 19.9047C67.8033 19.9047 65.5691 20.5286 63.9503 21.7764C62.3316 23.0242 61.1934 24.3563 60.5357 25.7727L54.8701 23.7493C55.8818 21.3886 57.2308 19.5506 58.917 18.2353C60.6201 16.9032 62.4749 15.9758 64.4815 15.4531C66.505 14.9135 68.4947 14.6437 70.4507 14.6437C71.6985 14.6437 73.1318 14.7955 74.7505 15.099C76.3862 15.3856 77.9628 15.9842 79.4804 16.8948C81.0149 17.8053 82.2879 19.1796 83.2997 21.0176C84.3114 22.8556 84.8173 25.3174 84.8173 28.4032V54H78.8481V48.739H78.5445C78.1398 49.5821 77.4654 50.4842 76.5211 51.4454C75.5768 52.4065 74.3206 53.2243 72.7524 53.8988C71.1842 54.5733 69.2703 54.9106 67.0108 54.9106ZM67.9214 49.5484C70.2821 49.5484 72.2718 49.0847 73.8906 48.1573C75.5262 47.2298 76.7572 46.0326 77.5834 44.5656C78.4265 43.0986 78.8481 41.5557 78.8481 39.937V34.4736C78.5951 34.7771 78.0387 35.0553 77.1787 35.3083C76.3356 35.5444 75.3576 35.7551 74.2447 35.9406C73.1486 36.1092 72.0779 36.261 71.0324 36.3959C70.0039 36.5139 69.1692 36.6151 68.5284 36.6994C66.9771 36.9018 65.5269 37.2306 64.178 37.6859C62.8459 38.1243 61.7667 38.7903 60.9404 39.684C60.1311 40.5608 59.7264 41.7581 59.7264 43.2757C59.7264 45.3497 60.4936 46.9179 62.028 47.9802C63.5794 49.0257 65.5438 49.5484 67.9214 49.5484Z" fill="black"/>
<path d="M95.7123 54V15.1496H101.479V21.0176H101.884C102.592 19.0953 103.874 17.5356 105.728 16.3383C107.583 15.1411 109.674 14.5425 112.001 14.5425C112.44 14.5425 112.988 14.5509 113.645 14.5678C114.303 14.5847 114.8 14.61 115.138 14.6437V20.7141C114.935 20.6635 114.472 20.5876 113.746 20.4864C113.038 20.3684 112.288 20.3094 111.495 20.3094C109.607 20.3094 107.921 20.7056 106.437 21.4982C104.97 22.2738 103.806 23.353 102.946 24.7357C102.103 26.1015 101.682 27.6613 101.682 29.415V54H95.7123Z" fill="black"/>
<path d="M133.646 54.9106C131.184 54.9106 128.95 54.4468 126.943 53.5194C124.937 52.5751 123.343 51.2177 122.163 49.4472C120.982 47.6598 120.392 45.5015 120.392 42.9721C120.392 40.7463 120.831 38.9421 121.707 37.5594C122.584 36.1598 123.756 35.0638 125.223 34.2713C126.69 33.4787 128.309 32.8886 130.08 32.5007C131.867 32.096 133.663 31.7757 135.467 31.5396C137.828 31.2361 139.742 31.0084 141.209 30.8567C142.692 30.688 143.772 30.4098 144.446 30.022C145.137 29.6342 145.483 28.9597 145.483 27.9985V27.7962C145.483 25.3006 144.8 23.3614 143.434 21.9787C142.085 20.596 140.037 19.9047 137.288 19.9047C134.438 19.9047 132.204 20.5286 130.585 21.7764C128.967 23.0242 127.828 24.3563 127.171 25.7727L121.505 23.7493C122.517 21.3886 123.866 19.5506 125.552 18.2353C127.255 16.9032 129.11 15.9758 131.117 15.4531C133.14 14.9135 135.13 14.6437 137.086 14.6437C138.334 14.6437 139.767 14.7955 141.386 15.099C143.021 15.3856 144.598 15.9842 146.115 16.8948C147.65 17.8053 148.923 19.1796 149.935 21.0176C150.946 22.8556 151.452 25.3174 151.452 28.4032V54H145.483V48.739H145.18C144.775 49.5821 144.1 50.4842 143.156 51.4454C142.212 52.4065 140.956 53.2243 139.387 53.8988C137.819 54.5733 135.905 54.9106 133.646 54.9106ZM134.556 49.5484C136.917 49.5484 138.907 49.0847 140.526 48.1573C142.161 47.2298 143.392 46.0326 144.218 44.5656C145.062 43.0986 145.483 41.5557 145.483 39.937V34.4736C145.23 34.7771 144.674 35.0553 143.814 35.3083C142.971 35.5444 141.993 35.7551 140.88 35.9406C139.784 36.1092 138.713 36.261 137.668 36.3959C136.639 36.5139 135.804 36.6151 135.163 36.6994C133.612 36.9018 132.162 37.2306 130.813 37.6859C129.481 38.1243 128.402 38.7903 127.576 39.684C126.766 40.5608 126.361 41.7581 126.361 43.2757C126.361 45.3497 127.129 46.9179 128.663 47.9802C130.214 49.0257 132.179 49.5484 134.556 49.5484Z" fill="black"/>
</svg>
